<svg width="1439" height="280" viewBox="0 0 1439 280" fill="none" xmlns="http://www.w3.org/2000/svg">
<g clip-path="url(#clip0_3_17)">
<path d="M-1 28L16.1 32.7C33.3 37 68 47 102 56C136.1 65 170 75 205 79.3C239 84 273 84 308 112C341.9 140 376 196 410 224C444.7 252 479 252 513 219.3C547.6 187 582 121 616 112C650.4 103 685 149 719 140C753.3 131 788 65 822 70C856.1 75 890 149 925 191.3C959 233 993 243 1028 214.7C1061.9 187 1096 121 1130 116.7C1164.7 112 1199 168 1233 182C1267.6 196 1302 168 1336 172.7C1370.4 177 1405 215 1439 224C1473.3 233 1508 215 1542 172.7C1576.1 131 1610 65 1645 37.3C1679 9 1713 19 1748 56C1781.9 93 1816 159 1850 196C1884.7 233 1919 243 1953 214.7C1987.6 187 2022 121 2056 102.7C2090.4 84 2125 112 2159 130.7C2193.3 149 2228 159 2262 163.3C2296.1 168 2330 168 2365 158.7C2399 149 2433 131 2450 121.3L2467.6 112V280H2450.4C2433.3 280 2399 280 2365 280C2330.4 280 2296 280 2262 280C2227.6 280 2193 280 2159 280C2124.7 280 2090 280 2056 280C2021.9 280 1988 280 1953 280C1919 280 1885 280 1850 280C1816.1 280 1782 280 1748 280C1713.3 280 1679 280 1645 280C1610.4 280 1576 280 1542 280C1507.6 280 1473 280 1439 280C1404.7 280 1370 280 1336 280C1301.9 280 1268 280 1233 280C1199 280 1165 280 1130 280C1096.1 280 1062 280 1028 280C993.3 280 959 280 925 280C890.4 280 856 280 822 280C787.6 280 753 280 719 280C684.7 280 650 280 616 280C581.9 280 548 280 513 280C479 280 445 280 410 280C376.1 280 342 280 308 280C273.3 280 239 280 205 280C170.4 280 136 280 102 280C67.6 280 33 280 16 280H-1V28Z" fill="url(#paint0_linear_3_17)"/>
</g>
<defs>
<linearGradient id="paint0_linear_3_17" x1="-1" y1="280" x2="-1" y2="20.9945" gradientUnits="userSpaceOnUse">
<stop stop-color="#0E1A24"/>
<stop offset="1" stop-color="#375670"/>
</linearGradient>
<clipPath id="clip0_3_17">
<rect width="1440" height="280" fill="white" transform="translate(-1)"/>
</clipPath>
</defs>
</svg>
